<svg width="100%" height="auto" viewBox="0 0 394 291" fill="none" xmlns="http://www.w3.org/2000/svg">
    <g id="Export">
        <g id="Bag">
            <g id="Straps">
                <path id="Strap1" d="M78.0142 158.932C67.519 132.5 0.0971049 155.432 3.09712 122.432C8.67537 61.0711 179.597 114.432 245.097 116.932C310.597 119.432 383.597 77.4319 331.097 34.9319C278.597 -7.56812 102.597 -1.56811 124.097 52.9319C155.25 131.902 405.123 25.4886 390.097 105.432C385.009 132.5 341.009 127.932 316.509 158.932" stroke="#FFFFFF" stroke-width="4"/>
                <path id="Strap2" d="M78.0142 158.932C67.519 132.5 0.0971049 155.432 3.09712 122.432C8.67537 61.0711 179.597 114.432 245.097 116.932C310.597 119.432 383.597 77.4319 331.097 34.9319C278.597 -7.56812 102.597 -1.56811 124.097 52.9319C155.25 131.902 405.123 25.4886 390.097 105.432C385.009 132.5 341.009 127.932 316.509 158.932" stroke="#FFFFFF" stroke-width="6" stroke-linecap="round" stroke-dasharray="12 8"/>
            </g>
            <g id="LeftPocket">
                <path id="LeftPocketClose" d="M50.0971 187.158L45.3744 259.133C45.1713 262.228 47.257 265.009 50.2856 265.68C53.6744 266.432 57.0307 264.293 57.7819 260.905L76.2805 177.463C77.2664 173.016 74.4606 168.612 70.0137 167.626C67.8704 167.151 65.6261 167.55 63.7779 168.734L59.2612 171.63C53.9142 175.057 50.513 180.82 50.0971 187.158Z" fill="#EEEEEE"/>
                <path id="LeftPocketOpen" d="M20.3766 189.266L43.7018 260.484C44.5197 262.982 46.5947 264.862 49.1602 265.431C53.1706 266.32 57.1423 263.79 58.0314 259.779L76.0155 178.658C77.1477 173.551 73.9254 168.493 68.8183 167.361C67.4019 167.047 65.9323 167.062 64.5228 167.406L27.5092 176.439C21.8486 177.82 18.5631 183.729 20.3766 189.266Z" fill="#EEEEEE"/>
            </g>
            <g id="RightPocket">
                <path id="RightPocketClose" d="M343.982 187.158L348.705 259.133C348.908 262.228 346.823 265.009 343.794 265.68C340.405 266.432 337.049 264.293 336.298 260.905L317.799 177.463C316.813 173.016 319.619 168.612 324.066 167.626C326.209 167.151 328.453 167.55 330.302 168.734L334.818 171.63C340.165 175.057 343.567 180.82 343.982 187.158Z" fill="#EEEEEE"/>
                <path id="RightPocketOpen" d="M373.703 189.307L350.378 260.525C349.56 263.022 347.485 264.903 344.919 265.471C340.909 266.36 336.937 263.83 336.048 259.82L318.064 178.699C316.932 173.592 320.154 168.534 325.261 167.401C326.678 167.087 328.147 167.103 329.557 167.447L366.57 176.479C372.231 177.861 375.516 183.77 373.703 189.307Z" fill="#EEEEEE"/>
            </g>
            <g id="MainPocket">
                <path id="MainPocketBG" d="M341.63 266.677L317.806 159.061C315.55 148.866 305.841 142.107 295.477 143.376C271.334 146.334 228.286 151 197.014 151C165.743 151 122.694 146.334 98.551 143.376C88.1869 142.107 78.4788 148.866 76.2219 159.061L52.3986 266.677C49.6346 279.163 59.1376 291 71.9259 291H322.103C334.891 291 344.394 279.163 341.63 266.677Z" fill="#DDDDDD"/>
                <path id="MainPocketClose" d="M341.63 266.677L317.806 159.061C315.55 148.866 305.841 142.107 295.477 143.376C271.334 146.334 228.286 151 197.014 151C165.743 151 122.694 146.334 98.551 143.376C88.1869 142.107 78.4788 148.866 76.2219 159.061L52.3986 266.677C49.6346 279.163 59.1376 291 71.9259 291H322.103C334.891 291 344.394 279.163 341.63 266.677Z" fill="#FFFFFF"/>
                <path id="MainPocketOpen" d="M341.63 266.677L318.383 161.666C315.9 150.447 304.5 143.572 293.331 146.275C268.849 152.2 227.379 161 197.014 161C166.649 161 125.179 152.2 100.697 146.275C89.5286 143.572 78.1289 150.447 75.6453 161.666L52.3986 266.677C49.6346 279.163 59.1376 291 71.9259 291H322.103C334.891 291 344.394 279.163 341.63 266.677Z" fill="#FFFFFF"/>
            </g>
            <g id="FrontPocket">
                <path id="FrontPocketBG" d="M95.8571 196.678C96.5195 191.71 100.757 188 105.769 188H288.259C293.271 188 297.509 191.71 298.171 196.678L305.505 251.678C306.304 257.673 301.64 263 295.592 263H98.436C92.3882 263 87.7244 257.673 88.5238 251.678L95.8571 196.678Z" fill="#EEEEEE"/>
                <line id="FrontPocketClose" x1="107.014" y1="199" x2="287.014" y2="199" stroke="#FFFFFF" stroke-width="2" stroke-dasharray="2 1"/>
                <g id="FrontPocketOpen">
                    <mask id="path-12-inside-1_0_1" fill="#FFFFFF">
                        <path d="M106.862 199.884C105.675 199.663 105.861 198 107.068 198H286.232C287.442 198 287.625 199.67 286.435 199.886C266.58 203.49 222.081 211 196.014 211C169.941 211 126.293 203.486 106.862 199.884Z"/>
                    </mask>
                    <path d="M106.862 199.884C105.675 199.663 105.861 198 107.068 198H286.232C287.442 198 287.625 199.67 286.435 199.886C266.58 203.49 222.081 211 196.014 211C169.941 211 126.293 203.486 106.862 199.884Z" fill="#DDDDDD" stroke="#FFFFFF" stroke-width="4" stroke-dasharray="2 1" mask="url(#path-12-inside-1_0_1)"/>
                </g>
            </g>
        </g>
    </g>
</svg>
