<svg width="100%" height="auto" viewBox="0 0 70 181" fill="none" xmlns="http://www.w3.org/2000/svg">
    <g id="Container" clip-path="url(#clip0_0_1)">
        <g id="Flower">
            <ellipse id="Leaf" cx="52.6777" cy="109.678" rx="20" ry="5" transform="rotate(-45 52.6777 109.678)" fill="#D1193E"/>
            <path id="Stem" d="M31.9548 31C27.4938 46.875 25.9275 79.0963 31.9548 97.375C45.5566 138.625 31.9548 127 31.9548 181" stroke="#FFC756" stroke-width="4"/>
            <g id="Petals1">
                <path id="Leaf2" d="M28.8157 26.4193C33.3747 23.3319 38.8468 28.8041 35.7594 33.363L21.6022 54.2678C19.8413 56.868 16.1473 57.2202 13.9267 54.9996L7.17908 48.252C4.95847 46.0314 5.31069 42.3374 7.91094 40.5765L28.8157 26.4193Z" fill="#D1193E"/>
                <path id="Leaf4" d="M35.7594 27.8157C38.8468 32.3747 33.3747 37.8468 28.8157 34.7594L7.91094 20.6023C5.31069 18.8413 4.95847 15.1474 7.17908 12.9268L13.9267 6.17911C16.1473 3.9585 19.8413 4.31072 21.6023 6.91097L35.7594 27.8157Z" fill="#D1193E"/>
                <path id="Leaf6" d="M34.363 34.7594C29.804 37.8468 24.3319 32.3747 27.4194 27.8157L41.5765 6.91097C43.3374 4.31072 47.0314 3.9585 49.252 6.17911L55.9996 12.9268C58.2202 15.1474 57.868 18.8413 55.2678 20.6023L34.363 34.7594Z" fill="#D1193E"/>
                <path id="Leaf8" d="M27.4193 33.363C24.3319 28.804 29.8041 23.3319 34.363 26.4194L55.2678 40.5765C57.868 42.3374 58.2202 46.0314 55.9996 48.252L49.252 54.9996C47.0314 57.2202 43.3374 56.868 41.5765 54.2678L27.4193 33.363Z" fill="#D1193E"/>
            </g>
            <g id="Petals2">
                <path id="Leaf1" d="M26.6795 29.6019C27.72 24.1952 35.4587 24.1952 36.4993 29.602L41.2706 54.3945C41.8641 57.4783 39.5011 60.3394 36.3607 60.3394H26.818C23.6776 60.3394 21.3147 57.4783 21.9081 54.3945L26.6795 29.6019Z" fill="#D63051"/>
                <path id="Leaf3" d="M32.5768 25.6795C37.9835 26.72 37.9835 34.4587 32.5768 35.4993L7.78426 40.2706C4.70043 40.8641 1.83935 38.5011 1.83935 35.3607V25.818C1.83935 22.6776 4.70043 20.3147 7.78426 20.9081L32.5768 25.6795Z" fill="#D63051"/>
                <path id="Leaf5" d="M36.4993 31.5768C35.4587 36.9835 27.72 36.9835 26.6795 31.5768L21.9081 6.78426C21.3147 3.70043 23.6776 0.839349 26.818 0.839349H36.3607C39.5011 0.839349 41.8641 3.70043 41.2706 6.78426L36.4993 31.5768Z" fill="#D63051"/>
                <path id="Leaf7" d="M30.6019 35.4993C25.1952 34.4587 25.1952 26.72 30.602 25.6795L55.3945 20.9081C58.4783 20.3147 61.3394 22.6776 61.3394 25.818V35.3607C61.3394 38.5011 58.4783 40.8641 55.3945 40.2706L30.6019 35.4993Z" fill="#D63051"/>
            </g>
            <circle id="Core" cx="32" cy="31" r="10" fill="#FFC756"/>
        </g>
    </g> 
    <defs>
        <clipPath id="clip0_0_1">
            <rect width="70" height="181" fill="white"/>
        </clipPath>
    </defs>
</svg>
