<svg width="100%" height="auto" viewBox="0 0 394 291" fill="none" xmlns="http://www.w3.org/2000/svg">
    <g id="Export">
        <g id="Flower">
            <ellipse id="Leaf" cx="220.614" cy="84.1043" rx="20" ry="5" transform="rotate(-120 220.614 84.1043)" fill="#D1193E"/>
            <path id="Stem" d="M139.253 83.7578C153.433 92.1755 184.151 102.028 203.367 100.937C246.732 98.4749 231.982 108.604 284.142 122.581" stroke="#FFC756" stroke-width="4"/>
            <g id="Petals1">
                <path id="Leaf2" d="M134.016 85.6043C132.214 80.4016 138.916 76.5322 142.521 80.6944L159.049 99.7797C161.105 102.154 160.489 105.813 157.769 107.383L149.505 112.154C146.785 113.725 143.308 112.428 142.281 109.461L134.016 85.6043Z" fill="#D1193E"/>
                <path id="Leaf4" d="M137.162 79.2587C142.365 77.4564 146.234 84.1583 142.072 87.7629L122.987 104.291C120.613 106.347 116.954 105.731 115.384 103.012L110.612 94.7474C109.042 92.0277 110.338 88.5508 113.306 87.5228L137.162 79.2587Z" fill="#D1193E"/>
                <path id="Leaf6" d="M143.508 82.4046C145.31 87.6073 138.608 91.4767 135.004 87.3145L118.475 68.2293C116.42 65.8553 117.035 62.1961 119.755 60.6259L128.019 55.8545C130.739 54.2843 134.216 55.5806 135.244 58.548L143.508 82.4046Z" fill="#D1193E"/>
                <path id="Leaf8" d="M140.362 88.7503C135.159 90.5525 131.29 83.8506 135.452 80.2461L154.537 63.7177C156.911 61.6618 160.571 62.2777 162.141 64.9974L166.912 73.2615C168.482 75.9812 167.186 79.4581 164.219 80.4861L140.362 88.7503Z" fill="#D1193E"/>
            </g>
            <g id="Petals2">
                <path id="Leaf1" d="M136.538 88.4915C131.584 86.087 133.587 78.612 139.079 79.0063L164.262 80.8143C167.394 81.0392 169.546 84.0622 168.733 87.0956L166.264 96.3131C165.451 99.3465 162.076 100.888 159.25 99.517L136.538 88.4915Z" fill="#D63051"/>
                <path id="Leaf3" d="M134.275 81.7799C136.68 76.8267 144.155 78.8296 143.76 84.3215L141.952 109.504C141.727 112.636 138.704 114.788 135.671 113.976L126.454 111.506C123.42 110.693 121.878 107.318 123.25 104.493L134.275 81.7799Z" fill="#D63051"/>
                <path id="Leaf5" d="M140.987 79.5174C145.94 81.9219 143.937 89.3969 138.445 89.0026L113.263 87.1946C110.13 86.9697 107.978 83.9467 108.791 80.9133L111.261 71.6959C112.074 68.6625 115.449 67.1205 118.274 68.4919L140.987 79.5174Z" fill="#D63051"/>
                <path id="Leaf7" d="M143.249 86.229C140.845 91.1823 133.37 89.1793 133.764 83.6875L135.572 58.5048C135.797 55.3725 138.82 53.2205 141.853 54.0333L151.071 56.5031C154.104 57.3159 155.646 60.6911 154.275 63.5162L143.249 86.229Z" fill="#D63051"/>
            </g>
            <circle id="Core" cx="139.265" cy="83.7141" r="10" transform="rotate(-75 139.265 83.7141)" fill="#FFC756"/>
        </g>
    </g>
</svg>
