<svg width="394" height="291" viewBox="0 0 394 291" fill="none" xmlns="http://www.w3.org/2000/svg">
    <g id="Export">
        <g id="Player">
            <g id="EarPods1">
                <path id="Wire" d="M51.2574 148.5C41.2574 152 43.8539 156.152 46.2577 157C54.7577 160 74.1573 146.783 77.2577 119.5C79.7577 97.5 101.258 99 84.7573 88.4998" stroke="#FFC756" stroke-linecap="round"/>
                <line id="Stem" x1="1" y1="-1" x2="9" y2="-1" transform="matrix(0.819152 0.573576 0.573576 -0.819152 78.2947 82.6869)" stroke="#D1193E" stroke-width="2" stroke-linecap="round"/>
                <ellipse id="Body" cx="2.5" cy="3.5" rx="2.5" ry="3.5" transform="matrix(-0.573576 0.819152 0.819152 0.573576 75.5916 79.5734)" fill="#D1193E"/>
                <ellipse id="Speaker" cx="2.5" cy="4.5" rx="2.5" ry="4.5" transform="matrix(-0.573576 0.819152 0.819152 0.573576 73.6253 80.6382)" fill="#D1193E"/>
            </g>
            <g id="EarPods2">
                <line id="Stem_2" x1="83.3521" y1="74.9217" x2="85.4226" y2="82.6491" stroke="#D1193E" stroke-width="2" stroke-linecap="round"/>
                <ellipse id="Body_2" cx="83.4468" cy="73.3434" rx="2.5" ry="3.5" transform="rotate(-15 83.4468 73.3434)" fill="#D1193E"/>
                <ellipse id="Speaker_2" cx="85.3786" cy="72.8258" rx="2.5" ry="4.5" transform="rotate(-15 85.3786 72.8258)" fill="#D1193E"/>
                <path id="Vector 1" d="M85.2577 81.5C88.2577 92.3334 91.3577 114.7 79.7577 117.5C65.2577 121 65.2577 134.5 66.2577 143C67.2577 151.5 64.0778 157.096 52.7577 156.5C43.2577 156 32.7577 148.5 51.2577 148.5" stroke="#FFC756" stroke-linecap="round"/>
            </g>
            <rect id="Body_3" x="35.9085" y="44.952" width="40" height="100" rx="5" transform="rotate(10 35.9085 44.952)" fill="#FFC756"/>
            <rect id="Screen" x="40.7755" y="51.9028" width="28" height="48" rx="1.5" transform="rotate(10 40.7755 51.9028)" fill="#F6D1D8" stroke="#D1193E" stroke-width="2"/>
            <circle id="Pad" cx="41.7128" cy="127.21" r="10" transform="rotate(10 41.7128 127.21)" fill="#F6D1D8" stroke="#D1193E" stroke-width="10"/>
            <g id="Buttons">
                <path id="Polygon 1" d="M44.0457 126.713C44.7076 127.204 44.5249 128.239 43.7351 128.474L40.7732 129.355C40.0606 129.567 39.3742 128.955 39.5033 128.223L39.9832 125.501C40.1123 124.769 40.9667 124.429 41.5638 124.872L44.0457 126.713Z" fill="#D1193E"/>
                <path id="Vector" d="M49.8375 128.642L53.2843 129.25M51.8648 127.223L51.257 130.67" stroke="#F6D1D8" stroke-linecap="round" stroke-linejoin="round"/>
                <path id="Vector_2" d="M30.1414 125.169L33.5882 125.777" stroke="#F6D1D8" stroke-linecap="round" stroke-linejoin="round"/>
                <path id="Vector_3" d="M37.4567 138.39L38.0644 134.944M40.483 135.624L38.7454 136.841M38.7454 136.841L39.9621 138.578M38.7454 136.841L42.1922 137.448" stroke="#F6D1D8" stroke-linecap="round" stroke-linejoin="round"/>
                <path id="Vector_4" d="M44.6803 117.579L41.2335 116.971M44.6803 117.579L42.9427 118.795M44.6803 117.579L43.4636 115.841M45.969 116.029L45.3613 119.476" stroke="#F6D1D8" stroke-linecap="round" stroke-linejoin="round"/>
            </g>
        </g>
    </g>
</svg>